<svg xmlns="http://www.w3.org/2000/svg" version="1.0" width="210.000000pt" height="210.000000pt" viewBox="0 0 210.000000 210.000000" preserveAspectRatio="xMidYMid meet">

<g transform="translate(0.000000,210.000000) scale(0.100000,-0.100000)" fill="#000000" stroke="none">
<path d="M523 2018 c-50 -11 -89 -52 -99 -103 -9 -52 3 -85 47 -127 37 -35 38 -38 19 -48 -34 -18 -129 -106 -165 -153 -55 -71 -132 -246 -156 -352 -13 -60 -13 -310 0 -380 15 -78 57 -202 82 -242 55 -88 110 -127 125 -88 4 8 -12 45 -33 83 -22 37 -53 105 -69 152 -28 82 -29 92 -29 270 0 177 1 188 28 261 40 110 93 216 134 266 41 50 198 179 263 216 25 14 90 40 145 58 94 31 109 32 250 33 143 1 154 -1 247 -32 135 -45 215 -92 297 -173 191 -188 285 -464 251 -730 -20 -154 -23 -163 -83 -289 -28 -58 -50 -109 -50 -115 1 -5 6 -34 12 -63 6 -29 13 -123 17 -210 4 -116 9 -161 20 -172 22 -23 35 0 46 86 9 71 3 337 -7 355 -3 4 13 38 35 75 116 199 144 399 90 648 -32 146 -123 311 -235 430 -36 37 -65 70 -63 71 2 1 18 10 36 19 59 30 76 111 35 174 -46 73 -179 84 -234 19 -10 -12 -22 -39 -25 -59 -7 -43 -6 -42 -42 -25 -33 17 -145 44 -233 56 -89 12 -295 -4 -372 -29 -33 -11 -64 -20 -68 -20 -5 0 -17 20 -27 43 -33 73 -108 111 -189 95z m91 -79 c20 -16 26 -29 26 -58 0 -33 -5 -40 -39 -59 -48 -27 -65 -28 -91 -2 -30 30 -26 76 9 111 35 34 59 36 95 8z m1031 -13 c14 -10 20 -26 20 -56 0 -35 -6 -47 -34 -72 -29 -26 -35 -28 -49 -15 -10 8 -25 17 -34 20 -18 6 -23 28 -19 77 4 50 73 78 116 46z"/>
<path d="M849 1445 c-37 -20 -42 -41 -17 -65 35 -32 74 -26 96 16 22 41 -32 74 -79 49z"/>
<path d="M1238 1419 c-22 -12 -23 -38 -2 -67 18 -26 56 -29 78 -6 27 26 20 54 -19 70 -40 16 -35 16 -57 3z"/>
<path d="M1014 1125 c-4 -9 -2 -34 5 -54 6 -21 11 -43 11 -49 0 -13 -55 -72 -67 -72 -4 0 -27 10 -51 22 -42 22 -44 23 -57 4 -43 -57 106 -116 175 -69 14 9 28 21 32 27 3 5 13 2 23 -8 47 -47 129 -55 176 -17 20 16 21 21 10 35 -15 18 -47 21 -56 6 -8 -14 -47 -12 -66 3 -34 26 -40 52 -22 101 24 63 12 80 -56 84 -40 2 -53 -1 -57 -13z"/>
<path d="M330 460 c-10 -20 -5 -224 9 -304 7 -41 33 -68 50 -51 5 6 11 86 13 178 4 138 3 171 -9 183 -20 20 -50 17 -63 -6z"/>
<path d="M485 360 c-9 -15 -13 -139 -6 -200 5 -47 9 -55 29 -58 16 -2 22 2 23 15 0 10 2 64 5 120 4 83 2 104 -12 117 -18 18 -30 20 -39 6z"/>
<path d="M1622 361 c-21 -13 -3 -250 20 -265 32 -20 42 7 46 123 4 100 2 111 -17 130 -23 23 -30 25 -49 12z"/>
</g>
</svg>