<svg xmlns="http://www.w3.org/2000/svg"><style>:root svg:not(:target){display:none}</style><svg viewBox="0 0 24 24" fill="none" id="alarmBell"><path d="M20.7936 16.4944C20.2733 15.5981 19.4999 13.0622 19.4999 9.75C19.4999 7.76088 18.7097 5.85322 17.3032 4.4467C15.8967 3.04018 13.989 2.25 11.9999 2.25C10.0108 2.25 8.10311 3.04018 6.69659 4.4467C5.29007 5.85322 4.49989 7.76088 4.49989 9.75C4.49989 13.0631 3.72551 15.5981 3.2052 16.4944C3.07233 16.7222 3.00189 16.9811 3.00099 17.2449C3.00008 17.5086 3.06874 17.768 3.20005 17.9967C3.33135 18.2255 3.52065 18.4156 3.74886 18.5478C3.97708 18.6801 4.23613 18.7498 4.49989 18.75H8.32583C8.49886 19.5967 8.95904 20.3577 9.62852 20.9042C10.298 21.4507 11.1357 21.7492 11.9999 21.7492C12.8641 21.7492 13.7018 21.4507 14.3713 20.9042C15.0407 20.3577 15.5009 19.5967 15.674 18.75H19.4999C19.7636 18.7496 20.0225 18.6798 20.2506 18.5475C20.4787 18.4151 20.6678 18.225 20.799 17.9963C20.9302 17.7676 20.9988 17.5083 20.9979 17.2446C20.9969 16.9809 20.9265 16.7222 20.7936 16.4944ZM11.9999 20.25C11.5347 20.2499 11.081 20.1055 10.7013 19.8369C10.3215 19.5683 10.0343 19.1886 9.87927 18.75H14.1205C13.9655 19.1886 13.6783 19.5683 13.2985 19.8369C12.9188 20.1055 12.4651 20.2499 11.9999 20.25ZM4.49989 17.25C5.22177 16.0087 5.99989 13.1325 5.99989 9.75C5.99989 8.1587 6.63203 6.63258 7.75725 5.50736C8.88247 4.38214 10.4086 3.75 11.9999 3.75C13.5912 3.75 15.1173 4.38214 16.2425 5.50736C17.3678 6.63258 17.9999 8.1587 17.9999 9.75C17.9999 13.1297 18.7761 16.0059 19.4999 17.25H4.49989Z" fill="black"></path></svg><svg viewBox="0 0 18 18" fill="none" id="calendar"><path d="M5.1057 0C5.27279 0 5.43303 0.0663748 5.55118 0.184523C5.66933 0.302671 5.7357 0.462914 5.7357 0.63V1.8081H12.501V0.6381C12.501 0.471014 12.5674 0.310771 12.6855 0.192623C12.8037 0.0744748 12.9639 0.0081 13.131 0.0081C13.2981 0.0081 13.4583 0.0744748 13.5765 0.192623C13.6946 0.310771 13.761 0.471014 13.761 0.6381V1.8081H16.2C16.6772 1.8081 17.1349 1.99762 17.4725 2.33499C17.81 2.67236 17.9998 3.12997 18 3.6072V16.2009C17.9998 16.6781 17.81 17.1357 17.4725 17.4731C17.1349 17.8105 16.6772 18 16.2 18H1.8C1.32277 18 0.865065 17.8105 0.527526 17.4731C0.189986 17.1357 0.000238617 16.6781 0 16.2009L0 3.6072C0.000238617 3.12997 0.189986 2.67236 0.527526 2.33499C0.865065 1.99762 1.32277 1.8081 1.8 1.8081H4.4757V0.6291C4.47594 0.46217 4.54242 0.302158 4.66054 0.184204C4.77866 0.0662511 4.93877 -1.70337e-07 5.1057 0ZM1.26 6.9678V16.2009C1.26 16.2718 1.27397 16.342 1.30111 16.4075C1.32824 16.4731 1.36802 16.5326 1.41816 16.5827C1.46831 16.6329 1.52784 16.6727 1.59335 16.6998C1.65887 16.7269 1.72909 16.7409 1.8 16.7409H16.2C16.2709 16.7409 16.3411 16.7269 16.4066 16.6998C16.4722 16.6727 16.5317 16.6329 16.5818 16.5827C16.632 16.5326 16.6718 16.4731 16.6989 16.4075C16.726 16.342 16.74 16.2718 16.74 16.2009V6.9804L1.26 6.9678ZM6.0003 13.1571V14.6565H4.5V13.1571H6.0003ZM9.7497 13.1571V14.6565H8.2503V13.1571H9.7497ZM13.5 13.1571V14.6565H11.9997V13.1571H13.5ZM6.0003 9.5778V11.0772H4.5V9.5778H6.0003ZM9.7497 9.5778V11.0772H8.2503V9.5778H9.7497ZM13.5 9.5778V11.0772H11.9997V9.5778H13.5ZM4.4757 3.0672H1.8C1.72909 3.0672 1.65887 3.08117 1.59335 3.1083C1.52784 3.13544 1.46831 3.17522 1.41816 3.22536C1.36802 3.27551 1.32824 3.33504 1.30111 3.40055C1.27397 3.46607 1.26 3.53629 1.26 3.6072V5.7087L16.74 5.7213V3.6072C16.74 3.53629 16.726 3.46607 16.6989 3.40055C16.6718 3.33504 16.632 3.27551 16.5818 3.22536C16.5317 3.17522 16.4722 3.13544 16.4066 3.1083C16.3411 3.08117 16.2709 3.0672 16.2 3.0672H13.761V3.9033C13.761 4.07039 13.6946 4.23063 13.5765 4.34878C13.4583 4.46693 13.2981 4.5333 13.131 4.5333C12.9639 4.5333 12.8037 4.46693 12.6855 4.34878C12.5674 4.23063 12.501 4.07039 12.501 3.9033V3.0672H5.7357V3.8952C5.7357 4.06229 5.66933 4.22253 5.55118 4.34068C5.43303 4.45883 5.27279 4.5252 5.1057 4.5252C4.93861 4.5252 4.77837 4.45883 4.66022 4.34068C4.54207 4.22253 4.4757 4.06229 4.4757 3.8952V3.0672Z" fill="white"></path></svg><svg viewBox="0 0 18 18" fill="none" id="calendarWhite"><path d="M5.1057 0C5.27279 0 5.43303 0.0663748 5.55118 0.184523C5.66933 0.302671 5.7357 0.462914 5.7357 0.63V1.8081H12.501V0.6381C12.501 0.471014 12.5674 0.310771 12.6855 0.192623C12.8037 0.0744748 12.9639 0.0081 13.131 0.0081C13.2981 0.0081 13.4583 0.0744748 13.5765 0.192623C13.6946 0.310771 13.761 0.471014 13.761 0.6381V1.8081H16.2C16.6772 1.8081 17.1349 1.99762 17.4725 2.33499C17.81 2.67236 17.9998 3.12997 18 3.6072V16.2009C17.9998 16.6781 17.81 17.1357 17.4725 17.4731C17.1349 17.8105 16.6772 18 16.2 18H1.8C1.32277 18 0.865065 17.8105 0.527526 17.4731C0.189986 17.1357 0.000238617 16.6781 0 16.2009L0 3.6072C0.000238617 3.12997 0.189986 2.67236 0.527526 2.33499C0.865065 1.99762 1.32277 1.8081 1.8 1.8081H4.4757V0.6291C4.47594 0.46217 4.54242 0.302158 4.66054 0.184204C4.77866 0.0662511 4.93877 -1.70337e-07 5.1057 0ZM1.26 6.9678V16.2009C1.26 16.2718 1.27397 16.342 1.30111 16.4075C1.32824 16.4731 1.36802 16.5326 1.41816 16.5827C1.46831 16.6329 1.52784 16.6727 1.59335 16.6998C1.65887 16.7269 1.72909 16.7409 1.8 16.7409H16.2C16.2709 16.7409 16.3411 16.7269 16.4066 16.6998C16.4722 16.6727 16.5317 16.6329 16.5818 16.5827C16.632 16.5326 16.6718 16.4731 16.6989 16.4075C16.726 16.342 16.74 16.2718 16.74 16.2009V6.9804L1.26 6.9678ZM6.0003 13.1571V14.6565H4.5V13.1571H6.0003ZM9.7497 13.1571V14.6565H8.2503V13.1571H9.7497ZM13.5 13.1571V14.6565H11.9997V13.1571H13.5ZM6.0003 9.5778V11.0772H4.5V9.5778H6.0003ZM9.7497 9.5778V11.0772H8.2503V9.5778H9.7497ZM13.5 9.5778V11.0772H11.9997V9.5778H13.5ZM4.4757 3.0672H1.8C1.72909 3.0672 1.65887 3.08117 1.59335 3.1083C1.52784 3.13544 1.46831 3.17522 1.41816 3.22536C1.36802 3.27551 1.32824 3.33504 1.30111 3.40055C1.27397 3.46607 1.26 3.53629 1.26 3.6072V5.7087L16.74 5.7213V3.6072C16.74 3.53629 16.726 3.46607 16.6989 3.40055C16.6718 3.33504 16.632 3.27551 16.5818 3.22536C16.5317 3.17522 16.4722 3.13544 16.4066 3.1083C16.3411 3.08117 16.2709 3.0672 16.2 3.0672H13.761V3.9033C13.761 4.07039 13.6946 4.23063 13.5765 4.34878C13.4583 4.46693 13.2981 4.5333 13.131 4.5333C12.9639 4.5333 12.8037 4.46693 12.6855 4.34878C12.5674 4.23063 12.501 4.07039 12.501 3.9033V3.0672H5.7357V3.8952C5.7357 4.06229 5.66933 4.22253 5.55118 4.34068C5.43303 4.45883 5.27279 4.5252 5.1057 4.5252C4.93861 4.5252 4.77837 4.45883 4.66022 4.34068C4.54207 4.22253 4.4757 4.06229 4.4757 3.8952V3.0672Z" fill="white"></path></svg><svg viewBox="0 0 18 18" fill="none" id="camera"><path d="M9 11.8125C10.2426 11.8125 11.25 10.8051 11.25 9.5625C11.25 8.31986 10.2426 7.3125 9 7.3125C7.75736 7.3125 6.75 8.31986 6.75 9.5625C6.75 10.8051 7.75736 11.8125 9 11.8125Z" fill="#777777"></path><path d="M16.0312 5.0625H13.1133C13.0078 5.0625 12.877 4.9943 12.7751 4.88672L11.816 3.38203C11.4258 2.8125 11.25 2.8125 10.6172 2.8125H7.38281C6.75 2.8125 6.53906 2.8125 6.18504 3.38238L5.22492 4.88672C5.14687 4.9718 5.03719 5.0625 4.92188 5.0625V4.5C4.92188 4.42541 4.89224 4.35387 4.8395 4.30113C4.78675 4.24838 4.71522 4.21875 4.64062 4.21875H3.23438C3.15978 4.21875 3.08825 4.24838 3.0355 4.30113C2.98276 4.35387 2.95312 4.42541 2.95312 4.5V5.0625H1.96875C1.74497 5.0625 1.53036 5.15139 1.37213 5.30963C1.21389 5.46786 1.125 5.68247 1.125 5.90625V14.3438C1.125 14.5675 1.21389 14.7821 1.37213 14.9404C1.53036 15.0986 1.74497 15.1875 1.96875 15.1875H16.0312C16.255 15.1875 16.4696 15.0986 16.6279 14.9404C16.7861 14.7821 16.875 14.5675 16.875 14.3438V5.90625C16.875 5.68247 16.7861 5.46786 16.6279 5.30963C16.4696 5.15139 16.255 5.0625 16.0312 5.0625ZM9.15856 12.934C8.4783 12.9659 7.80428 12.7914 7.22508 12.4332C6.64587 12.075 6.18858 11.55 5.91327 10.9271C5.63797 10.3042 5.55754 9.61259 5.68255 8.94316C5.80756 8.27372 6.13217 7.65776 6.61372 7.17622C7.09526 6.69467 7.71122 6.37006 8.38066 6.24505C9.05009 6.12004 9.74169 6.20047 10.3646 6.47577C10.9875 6.75108 11.5125 7.20837 11.8707 7.78758C12.2289 8.36678 12.4034 9.0408 12.3715 9.72106C12.3312 10.5602 11.9798 11.3542 11.3857 11.9482C10.7917 12.5423 9.99768 12.8937 9.15856 12.934Z" fill="#777777"></path></svg><svg viewBox="0 0 20 20" fill="none" id="chat"><path d="M17.9422 14.6195C18.3866 13.7386 18.6105 12.7629 18.5946 11.7763C18.5787 10.7898 18.3235 9.82183 17.8509 8.9557C17.3783 8.08956 16.7024 7.35113 15.8814 6.80389C15.0604 6.25665 14.1188 5.91696 13.1375 5.81401C12.8259 5.05561 12.3646 4.36787 11.781 3.79198C11.1974 3.21608 10.5036 2.76388 9.74114 2.46244C8.97867 2.161 8.16322 2.01653 7.3436 2.03767C6.52398 2.05881 5.71706 2.24514 4.97114 2.58548C4.22523 2.92583 3.55567 3.4132 3.00255 4.01841C2.44943 4.62363 2.02414 5.33424 1.75212 6.10769C1.48011 6.88115 1.36698 7.70154 1.4195 8.51974C1.47202 9.33795 1.68911 10.1371 2.05778 10.8695L1.44294 13.0234C1.39713 13.1841 1.3951 13.3541 1.43706 13.5158C1.47903 13.6776 1.56345 13.8252 1.68161 13.9433C1.79976 14.0615 1.94734 14.1459 2.10908 14.1879C2.27082 14.2298 2.44084 14.2278 2.60153 14.182L4.75544 13.5671C5.41405 13.8981 6.12709 14.1072 6.86012 14.1843C7.17898 14.962 7.65516 15.6653 8.25876 16.2502C8.86237 16.835 9.58037 17.2888 10.3677 17.583C11.155 17.8772 11.9946 18.0054 12.8339 17.9597C13.6731 17.9139 14.4938 17.6952 15.2445 17.3171L17.3984 17.932C17.5591 17.9778 17.7291 17.9798 17.8909 17.9379C18.0526 17.8959 18.2002 17.8115 18.3183 17.6933C18.4365 17.5752 18.5209 17.4276 18.5629 17.2658C18.6048 17.1041 18.6028 16.9341 18.557 16.7734L17.9422 14.6195ZM4.807 12.596C4.76339 12.5958 4.71998 12.6019 4.67809 12.614L2.34372 13.2812L3.01012 10.9476C3.04416 10.8291 3.03012 10.7019 2.97106 10.5937C2.37838 9.5046 2.198 8.2384 2.46297 7.02712C2.72795 5.81584 3.42053 4.7406 4.41381 3.99844C5.40708 3.25628 6.63454 2.89689 7.87124 2.98614C9.10795 3.07539 10.2711 3.60729 11.1475 4.48438C12.0239 5.36147 12.555 6.525 12.6433 7.76178C12.7316 8.99855 12.3713 10.2257 11.6283 11.2184C10.8854 12.2112 9.80967 12.9029 8.59819 13.167C7.38671 13.431 6.12065 13.2497 5.032 12.6562C4.96313 12.6178 4.88582 12.5972 4.807 12.596ZM16.989 14.6968L17.6562 17.0312L15.3226 16.3648C15.2041 16.3308 15.077 16.3448 14.9687 16.4039C14.3625 16.7343 13.6961 16.9397 13.009 17.0077C12.322 17.0758 11.6282 17.0052 10.969 16.8001C10.3097 16.595 9.69835 16.2595 9.17116 15.8137C8.64397 15.3679 8.2117 14.8207 7.89997 14.2046C8.77648 14.1476 9.63026 13.9016 10.4027 13.4834C11.1751 13.0652 11.8479 12.4849 12.3749 11.7822C12.9019 11.0794 13.2705 10.271 13.4556 9.41233C13.6406 8.55368 13.6376 7.66515 13.4468 6.80776C14.247 6.95675 15.0005 7.29304 15.6457 7.78912C16.2909 8.28519 16.8096 8.92697 17.1592 9.66194C17.5088 10.3969 17.6795 11.2042 17.6572 12.0178C17.635 12.8314 17.4205 13.6281 17.0312 14.3429C16.9711 14.4507 16.9559 14.5779 16.989 14.6968Z" fill="black"></path></svg><svg viewBox="0 0 26 27" fill="none" id="chatAlarm"><path d="M6.98552 10.091C7.14961 8.55357 7.85395 7.13302 8.9637 6.10126C10.0735 5.06951 11.5107 4.49902 13.0002 4.49902C14.4897 4.49902 15.9269 5.06951 17.0367 6.10126C18.1464 7.13302 18.8508 8.55357 19.0148 10.091L19.2879 12.6402L19.2943 12.7043C19.4342 13.9689 19.8308 15.1882 20.4579 16.2818L20.4903 16.3381L21.1154 17.4215C21.6842 18.4047 21.968 18.8963 21.9063 19.3002C21.8655 19.5683 21.7327 19.812 21.5325 19.9865C21.2303 20.2497 20.6778 20.2497 19.5739 20.2497H6.42652C5.32152 20.2497 4.76902 20.2497 4.46785 19.9876C4.267 19.8131 4.13384 19.5689 4.09302 19.3002C4.03235 18.8963 4.31618 18.4047 4.88385 17.4215L5.5111 16.337L5.5436 16.2807C6.17015 15.1873 6.56634 13.9684 6.70602 12.7043L6.71252 12.6402L6.98552 10.091Z" stroke="#777777" stroke-width="0.833333"></path><path d="M9.86035 20.7061C10.0456 21.5431 10.454 22.2833 11.0217 22.8098C11.5894 23.3386 12.2849 23.6243 12.9999 23.6243C13.7149 23.6243 14.4104 23.3386 14.978 22.8109C15.5457 22.2822 15.953 21.5431 16.1394 20.7061" stroke="#777777" stroke-width="0.833333" stroke-linecap="round"></path></svg><svg viewBox="0 0 18 19" fill="none" id="check"><rect y="0.5" width="18" height="18" rx="9" fill="white"></rect><path d="M8.1 14.75L4.5 10.9202L5.76 9.57979L8.1 12.0691L14.04 5.75L15.3 7.09043L8.1 14.75Z" fill="#79B2D1"></path></svg><svg viewBox="0 0 16 16" fill="none" id="checkedBox"><rect width="16" height="16" rx="4" fill="#719CF7"></rect><rect x="0.5" y="0.5" width="15" height="15" rx="3.5" stroke="#6391AA"></rect><path d="M7.3 12.0833L4.5 9.10453L5.48 8.06198L7.3 9.99815L11.92 5.08325L12.9 6.1258L7.3 12.0833Z" fill="white"></path></svg><svg viewBox="0 0 20 20" fill="none" id="close"><path d="M5.18748 4.00907C5.03031 3.85727 4.81981 3.77328 4.60131 3.77518C4.38281 3.77708 4.1738 3.86472 4.0193 4.01922C3.86479 4.17373 3.77715 4.38274 3.77525 4.60124C3.77335 4.81974 3.85735 5.03024 4.00915 5.18741L8.82165 9.99991L4.00831 14.8124C3.92872 14.8893 3.86524 14.9812 3.82156 15.0829C3.77789 15.1846 3.7549 15.2939 3.75394 15.4046C3.75298 15.5152 3.77406 15.625 3.81596 15.7274C3.85786 15.8298 3.91974 15.9228 3.99798 16.0011C4.07623 16.0793 4.16927 16.1412 4.27168 16.1831C4.3741 16.225 4.48383 16.2461 4.59448 16.2451C4.70513 16.2442 4.81448 16.2212 4.91615 16.1775C5.01782 16.1338 5.10977 16.0703 5.18665 15.9907L9.99998 11.1782L14.8125 15.9907C14.9696 16.1425 15.1802 16.2265 15.3986 16.2246C15.6171 16.2227 15.8262 16.1351 15.9807 15.9806C16.1352 15.8261 16.2228 15.6171 16.2247 15.3986C16.2266 15.1801 16.1426 14.9696 15.9908 14.8124L11.1783 9.99991L15.9908 5.18741C16.1426 5.03024 16.2266 4.81974 16.2247 4.60124C16.2228 4.38274 16.1352 4.17373 15.9807 4.01922C15.8262 3.86472 15.6171 3.77708 15.3986 3.77518C15.1802 3.77328 14.9696 3.85727 14.8125 4.00907L9.99998 8.82157L5.18748 4.00907Z" fill="black"></path></svg><svg viewBox="0 0 21 21" fill="none" id="date"><path d="M2.1665 16.3332C2.1665 17.7498 3.24984 18.8332 4.6665 18.8332H16.3332C17.7498 18.8332 18.8332 17.7498 18.8332 16.3332V9.6665H2.1665V16.3332ZM16.3332 3.83317H14.6665V2.99984C14.6665 2.49984 14.3332 2.1665 13.8332 2.1665C13.3332 2.1665 12.9998 2.49984 12.9998 2.99984V3.83317H7.99984V2.99984C7.99984 2.49984 7.6665 2.1665 7.1665 2.1665C6.6665 2.1665 6.33317 2.49984 6.33317 2.99984V3.83317H4.6665C3.24984 3.83317 2.1665 4.9165 2.1665 6.33317V7.99984H18.8332V6.33317C18.8332 4.9165 17.7498 3.83317 16.3332 3.83317Z" fill="black"></path></svg><svg viewBox="0 0 20 20" fill="none" id="down"><path d="M16.6923 7.94229L10.4423 14.1923C10.3842 14.2504 10.3153 14.2965 10.2394 14.328C10.1636 14.3594 10.0822 14.3756 10.0001 14.3756C9.91797 14.3756 9.83664 14.3594 9.76077 14.328C9.68489 14.2965 9.61596 14.2504 9.55792 14.1923L3.30792 7.94229C3.19064 7.82502 3.12476 7.66596 3.12476 7.5001C3.12476 7.33425 3.19064 7.17519 3.30792 7.05792C3.42519 6.94064 3.58425 6.87476 3.7501 6.87476C3.91596 6.87476 4.07502 6.94064 4.19229 7.05792L10.0001 12.8665L15.8079 7.05792C15.866 6.99985 15.9349 6.95378 16.0108 6.92236C16.0867 6.89093 16.168 6.87476 16.2501 6.87476C16.3322 6.87476 16.4135 6.89093 16.4894 6.92236C16.5653 6.95378 16.6342 6.99985 16.6923 7.05792C16.7504 7.11598 16.7964 7.18492 16.8278 7.26079C16.8593 7.33666 16.8755 7.41798 16.8755 7.5001C16.8755 7.58223 16.8593 7.66354 16.8278 7.73941C16.7964 7.81528 16.7504 7.88422 16.6923 7.94229Z" fill="black"></path></svg><svg viewBox="0 0 26 26" fill="none" id="exit"><path d="M16.2503 4.33398H5.41699V19.5006C5.41699 20.0753 5.64527 20.6264 6.05159 21.0327C6.45792 21.439 7.00902 21.6673 7.58366 21.6673H16.2503M17.3337 16.2507L20.5837 13.0007M20.5837 13.0007L17.3337 9.75065M20.5837 13.0007H9.75033" stroke="#777777" stroke-width="0.833333" stroke-linecap="round" stroke-linejoin="round"></path></svg><svg viewBox="0 0 20 20" fill="none" id="file"><path d="M6 2C5.46957 2 4.96086 2.21071 4.58579 2.58579C4.21071 2.96086 4 3.46957 4 4V16C4 16.5304 4.21071 17.0391 4.58579 17.4142C4.96086 17.7893 5.46957 18 6 18H14C14.5304 18 15.0391 17.7893 15.4142 17.4142C15.7893 17.0391 16 16.5304 16 16V7.414C15.9996 7.01631 15.8414 6.63503 15.56 6.354L11.646 2.439C11.3648 2.15798 10.9835 2.00008 10.586 2H6ZM5 4C5 3.73478 5.10536 3.48043 5.29289 3.29289C5.48043 3.10536 5.73478 3 6 3H10V6.5C10 6.89782 10.158 7.27936 10.4393 7.56066C10.7206 7.84196 11.1022 8 11.5 8H15V16C15 16.2652 14.8946 16.5196 14.7071 16.7071C14.5196 16.8946 14.2652 17 14 17H6C5.73478 17 5.48043 16.8946 5.29289 16.7071C5.10536 16.5196 5 16.2652 5 16V4ZM14.793 7H11.5C11.3674 7 11.2402 6.94732 11.1464 6.85355C11.0527 6.75979 11 6.63261 11 6.5V3.207L14.793 7Z" fill="black"></path></svg><svg viewBox="0 0 20 20" fill="none" id="fullChat"><path d="M2.36104 15.202C2.36104 15.2047 2.36104 15.2098 2.35791 15.2168C2.35908 15.2121 2.35986 15.207 2.36104 15.202ZM17.1837 15.8438C17.0551 15.841 16.9281 15.8145 16.8091 15.7656L14.5911 14.9793L14.5747 14.9727C14.5263 14.9525 14.4744 14.9424 14.422 14.943C14.3737 14.943 14.3258 14.9518 14.2806 14.9688C14.2267 14.9891 13.7411 15.1715 13.2317 15.3113C12.9556 15.3871 11.9942 15.6344 11.2228 15.6344C9.25088 15.6344 7.40713 14.8766 6.03174 13.5004C5.35983 12.8326 4.82705 12.0382 4.46423 11.1631C4.10142 10.288 3.91578 9.34966 3.91807 8.40235C3.91805 7.90875 3.97122 7.41658 4.07666 6.93438C4.42002 5.34766 5.32939 3.9043 6.63721 2.87188C7.97875 1.81955 9.63491 1.24837 11.3399 1.25C13.3794 1.25 15.2798 2.03125 16.6915 3.44453C18.0259 4.78321 18.7571 6.54336 18.7513 8.40039C18.7501 9.7803 18.3381 11.1286 17.5677 12.2734L17.5603 12.2844L17.5313 12.3234C17.5247 12.3324 17.5181 12.341 17.5118 12.35L17.506 12.3605C17.4904 12.387 17.4763 12.4142 17.4638 12.4422L18.0786 14.6273C18.1058 14.7175 18.1205 14.8109 18.1224 14.9051C18.1225 15.0284 18.0983 15.1505 18.0512 15.2645C18.0041 15.3784 17.935 15.482 17.8478 15.5692C17.7606 15.6564 17.657 15.7255 17.5431 15.7726C17.4291 15.8197 17.307 15.8439 17.1837 15.8438Z" fill="black"></path><path d="M11.7137 16.6167C11.6733 16.5382 11.6165 16.4693 11.5472 16.4147C11.4778 16.3601 11.3975 16.3211 11.3117 16.3003C11.086 16.2405 10.8227 16.2507 10.6215 16.2358C8.72203 16.1038 6.93456 15.2886 5.58947 13.9409C4.39367 12.7518 3.61652 11.2064 3.37502 9.53738C3.32033 9.15691 3.32033 9.06238 3.32033 9.06238C3.32031 8.93544 3.28163 8.81152 3.20945 8.7071C3.13726 8.60268 3.03499 8.52271 2.91625 8.47785C2.7975 8.43298 2.66791 8.42533 2.54471 8.45592C2.42151 8.48651 2.31055 8.5539 2.22658 8.6491C2.22658 8.6491 1.91877 8.98426 1.77346 9.32059C1.36591 10.2596 1.19211 11.2834 1.26694 12.3043C1.34178 13.3252 1.66302 14.3128 2.20314 15.1823C2.30471 15.3514 2.30471 15.4296 2.28205 15.6054C2.17541 16.1565 1.98869 17.1288 1.89143 17.6331C1.85922 17.7966 1.8712 17.9658 1.92613 18.1232C1.98106 18.2805 2.07695 18.4204 2.20393 18.5284L2.22189 18.5436C2.38987 18.677 2.59802 18.7497 2.81252 18.7499C2.93317 18.75 3.05265 18.7262 3.16408 18.68L5.25432 17.8733C5.32628 17.846 5.40579 17.846 5.47775 17.8733C6.3008 18.1796 7.15744 18.3421 7.96916 18.3421C8.98054 18.343 9.97968 18.1208 10.8953 17.6913C11.1086 17.5913 11.4422 17.4827 11.6375 17.2569C11.7114 17.1693 11.758 17.062 11.7716 16.9482C11.7851 16.8344 11.765 16.7192 11.7137 16.6167Z" fill="black"></path></svg><svg viewBox="0 0 20 20" fill="none" id="fullFile"><path d="M10 2V6.5C10 6.89782 10.158 7.27936 10.4393 7.56066C10.7206 7.84196 11.1022 8 11.5 8H16V16.5C16 16.8978 15.842 17.2794 15.5607 17.5607C15.2794 17.842 14.8978 18 14.5 18H5.5C5.10218 18 4.72064 17.842 4.43934 17.5607C4.15804 17.2794 4 16.8978 4 16.5V3.5C4 3.10218 4.15804 2.72064 4.43934 2.43934C4.72064 2.15804 5.10218 2 5.5 2H10ZM11 2.25V6.5C11 6.63261 11.0527 6.75979 11.1464 6.85355C11.2402 6.94732 11.3674 7 11.5 7H15.75L11 2.25Z" fill="black"></path></svg><svg viewBox="0 0 20 20" fill="none" id="fullHome"><path d="M3.33325 17.5V7.5L9.99992 2.5L16.6666 7.5V17.5H11.6666V11.6667H8.33325V17.5H3.33325Z" fill="black"></path></svg><svg viewBox="0 0 20 20" fill="none" id="fullMap"><path d="M15.625 17.5H11.7609C12.41 16.9204 13.0222 16.3007 13.5938 15.6445C15.7383 13.1781 16.875 10.5781 16.875 8.125C16.875 6.30164 16.1507 4.55295 14.8614 3.26364C13.572 1.97433 11.8234 1.25 10 1.25C8.17664 1.25 6.42795 1.97433 5.13864 3.26364C3.84933 4.55295 3.125 6.30164 3.125 8.125C3.125 10.5781 4.25859 13.1781 6.40625 15.6445C6.97782 16.3007 7.58996 16.9204 8.23906 17.5H4.375C4.20924 17.5 4.05027 17.5658 3.93306 17.6831C3.81585 17.8003 3.75 17.9592 3.75 18.125C3.75 18.2908 3.81585 18.4497 3.93306 18.5669C4.05027 18.6842 4.20924 18.75 4.375 18.75H15.625C15.7908 18.75 15.9497 18.6842 16.0669 18.5669C16.1842 18.4497 16.25 18.2908 16.25 18.125C16.25 17.9592 16.1842 17.8003 16.0669 17.6831C15.9497 17.5658 15.7908 17.5 15.625 17.5ZM10 5.625C10.4945 5.625 10.9778 5.77162 11.3889 6.04633C11.8 6.32103 12.1205 6.71148 12.3097 7.16829C12.4989 7.62511 12.5484 8.12777 12.452 8.61273C12.3555 9.09768 12.1174 9.54314 11.7678 9.89277C11.4181 10.2424 10.9727 10.4805 10.4877 10.577C10.0028 10.6734 9.50011 10.6239 9.04329 10.4347C8.58648 10.2455 8.19603 9.92505 7.92133 9.51393C7.64662 9.1028 7.5 8.61945 7.5 8.125C7.5 7.46196 7.76339 6.82607 8.23223 6.35723C8.70107 5.88839 9.33696 5.625 10 5.625Z" fill="black"></path></svg><svg viewBox="0 0 20 20" fill="none" id="fullMy"><path d="M14.7958 11.6667C15.042 11.6668 15.2856 11.7154 15.513 11.8097C15.7403 11.904 15.9469 12.0421 16.1208 12.2163C16.2948 12.3904 16.4327 12.597 16.5268 12.8245C16.6209 13.0519 16.6693 13.2956 16.6692 13.5417V14.3067C16.6692 14.7842 16.52 15.2498 16.2425 15.6384C14.9542 17.4417 12.8508 18.3342 10.0008 18.3342C7.14917 18.3342 5.04667 17.4409 3.76167 15.6376C3.48511 15.2492 3.33654 14.7843 3.33667 14.3076V13.5409C3.33667 13.0438 3.53413 12.5671 3.8856 12.2157C4.23707 11.8642 4.71378 11.6667 5.21084 11.6667H14.7958ZM10 1.6709C10.5472 1.6709 11.089 1.77867 11.5945 1.98807C12.1 2.19746 12.5594 2.50438 12.9463 2.89129C13.3332 3.2782 13.6401 3.73753 13.8495 4.24305C14.0589 4.74857 14.1667 5.29039 14.1667 5.83756C14.1667 6.38474 14.0589 6.92656 13.8495 7.43208C13.6401 7.9376 13.3332 8.39693 12.9463 8.78384C12.5594 9.17075 12.1 9.47767 11.5945 9.68706C11.089 9.89646 10.5472 10.0042 10 10.0042C8.89493 10.0042 7.83513 9.56524 7.05372 8.78384C6.27232 8.00244 5.83334 6.94263 5.83334 5.83756C5.83334 4.7325 6.27232 3.67269 7.05372 2.89129C7.83513 2.10989 8.89493 1.6709 10 1.6709Z" fill="black"></path></svg><svg viewBox="0 0 20 20" fill="none" id="fullPeople"><path d="M13.3332 14.1666V15.8333H1.6665V14.1666C1.6665 14.1666 1.6665 10.8333 7.49984 10.8333C13.3332 10.8333 13.3332 14.1666 13.3332 14.1666ZM10.4165 6.24996C10.4165 5.6731 10.2454 5.10919 9.92496 4.62955C9.60447 4.14991 9.14895 3.77607 8.616 3.55531C8.08305 3.33456 7.4966 3.2768 6.93082 3.38934C6.36505 3.50188 5.84535 3.77966 5.43744 4.18757C5.02954 4.59547 4.75175 5.11517 4.63921 5.68095C4.52667 6.24673 4.58443 6.83317 4.80519 7.36612C5.02594 7.89907 5.39978 8.3546 5.87942 8.67508C6.35907 8.99557 6.92298 9.16663 7.49984 9.16663C8.27339 9.16663 9.01525 8.85934 9.56223 8.31236C10.1092 7.76538 10.4165 7.02351 10.4165 6.24996ZM13.2832 10.8333C13.7955 11.2298 14.2146 11.7337 14.5112 12.3096C14.8078 12.8854 14.9746 13.5193 14.9998 14.1666V15.8333H18.3332V14.1666C18.3332 14.1666 18.3332 11.1416 13.2832 10.8333ZM12.4998 3.3333C11.9262 3.3301 11.3653 3.50159 10.8915 3.82496C11.3977 4.53224 11.6699 5.3802 11.6699 6.24996C11.6699 7.11972 11.3977 7.96768 10.8915 8.67496C11.3653 8.99833 11.9262 9.16982 12.4998 9.16663C13.2734 9.16663 14.0153 8.85934 14.5622 8.31236C15.1092 7.76538 15.4165 7.02351 15.4165 6.24996C15.4165 5.47641 15.1092 4.73455 14.5622 4.18757C14.0153 3.64059 13.2734 3.3333 12.4998 3.3333Z" fill="black"></path></svg><svg viewBox="0 0 20 21" fill="none" id="gender"><path d="M16.25 2.375H13.125C12.9592 2.375 12.8002 2.44085 12.683 2.55806C12.5658 2.67527 12.5 2.83424 12.5 3C12.5 3.16576 12.5658 3.32473 12.683 3.44194C12.8002 3.55915 12.9592 3.625 13.125 3.625H14.7414L12.7765 5.58984C12.1996 5.05218 11.5037 4.65861 10.7456 4.44128C9.98747 4.22396 9.18872 4.18903 8.41455 4.33936C7.64038 4.4897 6.91275 4.82102 6.29109 5.30628C5.66943 5.79154 5.17137 6.41696 4.83759 7.13148C4.50381 7.84599 4.34378 8.62932 4.37056 9.4175C4.39735 10.2057 4.61019 10.9763 4.9917 11.6665C5.37322 12.3567 5.91259 12.9469 6.56576 13.3888C7.21893 13.8308 7.96737 14.1119 8.74996 14.2094V15.5H6.87496C6.7092 15.5 6.55023 15.5658 6.43302 15.6831C6.31581 15.8003 6.24996 15.9592 6.24996 16.125C6.24996 16.2908 6.31581 16.4497 6.43302 16.5669C6.55023 16.6842 6.7092 16.75 6.87496 16.75H8.74996V18.625C8.74996 18.7908 8.81581 18.9497 8.93302 19.0669C9.05023 19.1842 9.2092 19.25 9.37496 19.25C9.54072 19.25 9.69969 19.1842 9.8169 19.0669C9.93411 18.9497 9.99996 18.7908 9.99996 18.625V16.75H11.875C12.0407 16.75 12.1997 16.6842 12.3169 16.5669C12.4341 16.4497 12.5 16.2908 12.5 16.125C12.5 15.9592 12.4341 15.8003 12.3169 15.6831C12.1997 15.5658 12.0407 15.5 11.875 15.5H9.99996V14.2094C10.8377 14.1047 11.6353 13.7894 12.3181 13.2928C13.0009 12.7963 13.5466 12.1347 13.9043 11.37C14.262 10.6052 14.42 9.76228 14.3635 8.9199C14.307 8.07753 14.0379 7.26324 13.5812 6.55313L15.625 4.50859V6.125C15.625 6.29076 15.6908 6.44973 15.808 6.56694C15.9252 6.68415 16.0842 6.75 16.25 6.75C16.4157 6.75 16.5747 6.68415 16.6919 6.56694C16.8091 6.44973 16.875 6.29076 16.875 6.125V3C16.875 2.83424 16.8091 2.67527 16.6919 2.55806C16.5747 2.44085 16.4157 2.375 16.25 2.375ZM9.37496 13C8.63328 13 7.90826 12.7801 7.29157 12.368C6.67489 11.956 6.19424 11.3703 5.91041 10.6851C5.62658 9.99984 5.55232 9.24584 5.69702 8.51841C5.84171 7.79098 6.19886 7.1228 6.72331 6.59835C7.24776 6.0739 7.91594 5.71675 8.64337 5.57206C9.3708 5.42736 10.1248 5.50162 10.81 5.78545C11.4952 6.06928 12.0809 6.54993 12.493 7.16661C12.905 7.7833 13.125 8.50832 13.125 9.25C13.1239 10.2442 12.7285 11.1975 12.0255 11.9005C11.3224 12.6035 10.3692 12.999 9.37496 13Z" fill="black"></path></svg><svg viewBox="0 0 20 20" fill="none" id="hamburger"><path d="M4.16675 14.1666H15.8334M4.16675 9.99992H15.8334M4.16675 5.83325H15.8334" stroke="black" stroke-width="1.16667" stroke-linecap="round" stroke-linejoin="round"></path></svg><svg viewBox="0 0 20 20" fill="none" id="home"><path d="M9.19167 2.15834C9.41757 1.96704 9.70399 1.86206 10 1.86206C10.296 1.86206 10.5824 1.96704 10.8083 2.15834L17.0583 7.46084C17.1967 7.57817 17.3079 7.72422 17.3842 7.88884C17.4605 8.05347 17.5 8.23273 17.5 8.41417V16.25C17.5 16.5815 17.3683 16.8995 17.1339 17.1339C16.8995 17.3683 16.5815 17.5 16.25 17.5H11.4583C11.2926 17.5 11.1336 17.4342 11.0164 17.3169C10.8992 17.1997 10.8333 17.0408 10.8333 16.875V11.6667H9.16667V16.875C9.16667 17.0408 9.10082 17.1997 8.98361 17.3169C8.8664 17.4342 8.70743 17.5 8.54167 17.5H3.75C3.41848 17.5 3.10054 17.3683 2.86612 17.1339C2.6317 16.8995 2.5 16.5815 2.5 16.25V8.41417C2.5 8.0475 2.66167 7.69834 2.94167 7.46084L9.19167 2.15834ZM10 3.11167L3.75 8.41417V16.25H7.91667V11.0417C7.91667 10.8759 7.98251 10.7169 8.09973 10.5997C8.21694 10.4825 8.37591 10.4167 8.54167 10.4167H11.4583C11.6241 10.4167 11.7831 10.4825 11.9003 10.5997C12.0175 10.7169 12.0833 10.8759 12.0833 11.0417V16.25H16.25V8.41417L10 3.11167Z" fill="black"></path></svg><svg viewBox="0 0 14 15" fill="none" id="information"><path d="M7.18509 4.62099C7.30176 4.51599 7.44176 4.45182 7.59342 4.45182C7.75092 4.45182 7.88509 4.51599 8.00759 4.62099C8.11842 4.74349 8.17676 4.88349 8.17676 5.03516C8.17676 5.19266 8.11842 5.32682 8.00759 5.44932C7.88509 5.56016 7.75092 5.61849 7.59342 5.61849C7.44176 5.61849 7.30176 5.56016 7.18509 5.44932C7.07426 5.32682 7.01009 5.19266 7.01009 5.03516C7.01009 4.88349 7.07426 4.74349 7.18509 4.62099ZM5.72676 7.35099C5.72676 7.35099 6.99259 6.34766 7.45342 6.30682C7.88509 6.27182 7.79759 6.76766 7.75676 7.02432L7.75092 7.05932C7.66926 7.36849 7.57009 7.74182 7.47092 8.09766C7.24926 8.90849 7.03342 9.70182 7.08592 9.84766C7.14426 10.046 7.50592 9.79516 7.76842 9.62016C7.80342 9.59682 7.83259 9.57349 7.86176 9.55599C7.86176 9.55599 7.90842 9.50932 7.95509 9.57349C7.96676 9.59099 7.97842 9.60849 7.99009 9.62016C8.04259 9.70182 8.07176 9.73099 8.00176 9.77766L7.97842 9.78932C7.85009 9.87682 7.30176 10.2618 7.08009 10.4018C6.84092 10.5593 5.92509 11.0843 6.06509 10.0635C6.18759 9.34599 6.35092 8.72766 6.47926 8.24349C6.71842 7.36849 6.82342 6.97182 6.28676 7.31599C6.07092 7.44432 5.94259 7.52599 5.86676 7.57849C5.80259 7.62516 5.79676 7.62516 5.75592 7.54932L5.73842 7.51432L5.70926 7.46766C5.66842 7.40932 5.66842 7.40349 5.72676 7.35099ZM12.8434 7.36849C12.8434 10.5768 10.2184 13.2018 7.01009 13.2018C3.80176 13.2018 1.17676 10.5768 1.17676 7.36849C1.17676 4.16016 3.80176 1.53516 7.01009 1.53516C10.2184 1.53516 12.8434 4.16016 12.8434 7.36849ZM11.6768 7.36849C11.6768 4.79016 9.58842 2.70182 7.01009 2.70182C4.43176 2.70182 2.34342 4.79016 2.34342 7.36849C2.34342 9.94682 4.43176 12.0352 7.01009 12.0352C9.58842 12.0352 11.6768 9.94682 11.6768 7.36849Z" fill="black"></path></svg><svg viewBox="0 0 20 20" fill="none" id="left"><path d="M12.9422 15.8079C13.0003 15.866 13.0463 15.9349 13.0777 16.0108C13.1092 16.0867 13.1254 16.168 13.1254 16.2501C13.1254 16.3322 13.1092 16.4135 13.0777 16.4894C13.0463 16.5653 13.0003 16.6342 12.9422 16.6923C12.8841 16.7504 12.8152 16.7964 12.7393 16.8278C12.6634 16.8593 12.5821 16.8755 12.5 16.8755C12.4179 16.8755 12.3366 16.8593 12.2607 16.8278C12.1848 16.7964 12.1159 16.7504 12.0578 16.6923L5.80782 10.4423C5.74971 10.3842 5.70361 10.3153 5.67215 10.2394C5.6407 10.1636 5.62451 10.0822 5.62451 10.0001C5.62451 9.91797 5.6407 9.83664 5.67215 9.76077C5.70361 9.68489 5.74971 9.61596 5.80782 9.55792L12.0578 3.30792C12.1751 3.19064 12.3342 3.12476 12.5 3.12476C12.6659 3.12476 12.8249 3.19064 12.9422 3.30792C13.0595 3.42519 13.1254 3.58425 13.1254 3.7501C13.1254 3.91596 13.0595 4.07502 12.9422 4.19229L7.1336 10.0001L12.9422 15.8079Z" fill="black"></path></svg><svg viewBox="0 0 34 34" fill="none" id="location"><circle cx="17" cy="17" r="17" fill="white"></circle><path d="M16.4709 27V25.454C14.2663 25.2473 12.4462 24.4261 11.0106 22.9905C9.57425 21.5541 8.75309 19.7337 8.54709 17.5291H7V16.4709H8.54709C8.75309 14.2663 9.57425 12.4462 11.0106 11.0106C12.4469 9.57496 14.267 8.75379 16.4709 8.54709V7H17.5291V8.54709C19.7337 8.75309 21.5538 9.57425 22.9894 11.0106C24.425 12.4469 25.2466 14.267 25.454 16.4709H27V17.5291H25.454C25.2473 19.7337 24.4261 21.5538 22.9905 22.9894C21.5541 24.4257 19.7337 25.2473 17.5291 25.454V27H16.4709ZM17 24.4074C19.0459 24.4074 20.7919 23.6843 22.2381 22.2381C23.6843 20.7919 24.4074 19.0459 24.4074 17C24.4074 14.9541 23.6843 13.2081 22.2381 11.7619C20.7919 10.3157 19.0459 9.59259 17 9.59259C14.9541 9.59259 13.2081 10.3157 11.7619 11.7619C10.3157 13.2081 9.59259 14.9541 9.59259 17C9.59259 19.0459 10.3157 20.7919 11.7619 22.2381C13.2081 23.6843 14.9541 24.4074 17 24.4074ZM17 20.1746C16.1273 20.1746 15.3799 19.8638 14.7577 19.2423C14.1354 18.6208 13.8247 17.8734 13.8254 17C13.8261 16.1266 14.1369 15.3792 14.7577 14.7577C15.3785 14.1362 16.1259 13.8254 17 13.8254C17.8741 13.8254 18.6215 14.1362 19.2423 14.7577C19.8631 15.3792 20.1739 16.1266 20.1746 17C20.1753 17.8734 19.8645 18.6208 19.2423 19.2423C18.6201 19.8638 17.8727 20.1746 17 20.1746ZM17 19.1164C17.582 19.1164 18.0804 18.9093 18.4952 18.4952C18.9101 18.0811 19.1171 17.5827 19.1164 17C19.1157 16.4173 18.9086 15.9192 18.4952 15.5058C18.0818 15.0924 17.5834 14.885 17 14.8836C16.4166 14.8822 15.9185 15.0896 15.5058 15.5058C15.0931 15.922 14.8857 16.4201 14.8836 17C14.8815 17.5799 15.0889 18.0783 15.5058 18.4952C15.9228 18.9122 16.4208 19.1192 17 19.1164Z" fill="#79B2D1"></path></svg><svg viewBox="0 0 20 20" fill="none" id="map"><path d="M15.625 17.6562H11.3453C12.1065 17.0039 12.8196 16.2973 13.4789 15.5422C15.5984 13.1047 16.7188 10.5422 16.7188 8.125C16.7188 6.34308 16.0109 4.63414 14.7509 3.37413C13.4909 2.11412 11.7819 1.40625 10 1.40625C8.21808 1.40625 6.50914 2.11412 5.24913 3.37413C3.98912 4.63414 3.28125 6.34308 3.28125 8.125C3.28125 10.5398 4.40156 13.1047 6.52109 15.5422C7.18044 16.2973 7.8935 17.0039 8.65469 17.6562H4.375C4.25068 17.6562 4.13145 17.7056 4.04354 17.7935C3.95564 17.8815 3.90625 18.0007 3.90625 18.125C3.90625 18.2493 3.95564 18.3685 4.04354 18.4565C4.13145 18.5444 4.25068 18.5938 4.375 18.5938H15.625C15.7493 18.5938 15.8685 18.5444 15.9565 18.4565C16.0444 18.3685 16.0938 18.2493 16.0938 18.125C16.0938 18.0007 16.0444 17.8815 15.9565 17.7935C15.8685 17.7056 15.7493 17.6562 15.625 17.6562ZM4.21875 8.125C4.21875 6.59172 4.82784 5.12123 5.91204 4.03704C6.99623 2.95284 8.46672 2.34375 10 2.34375C11.5333 2.34375 13.0038 2.95284 14.088 4.03704C15.1722 5.12123 15.7812 6.59172 15.7812 8.125C15.7812 12.7828 11.1719 16.6352 10 17.5398C8.82812 16.6352 4.21875 12.7828 4.21875 8.125ZM12.9688 8.125C12.9688 7.53784 12.7946 6.96386 12.4684 6.47565C12.1422 5.98744 11.6786 5.60693 11.1361 5.38223C10.5936 5.15754 9.99671 5.09874 9.42083 5.21329C8.84494 5.32784 8.31596 5.61059 7.90078 6.02578C7.48559 6.44096 7.20284 6.96994 7.08829 7.54583C6.97374 8.12171 7.03254 8.71862 7.25723 9.26109C7.48193 9.80356 7.86244 10.2672 8.35065 10.5934C8.83886 10.9196 9.41284 11.0938 10 11.0938C10.7874 11.0938 11.5425 10.781 12.0992 10.2242C12.656 9.66747 12.9688 8.91236 12.9688 8.125ZM7.96875 8.125C7.96875 7.72326 8.08788 7.33054 8.31108 6.9965C8.53427 6.66246 8.85151 6.40211 9.22267 6.24837C9.59384 6.09463 10.0023 6.0544 10.3963 6.13278C10.7903 6.21116 11.1522 6.40461 11.4363 6.68869C11.7204 6.97276 11.9138 7.3347 11.9922 7.72872C12.0706 8.12275 12.0304 8.53116 11.8766 8.90233C11.7229 9.27349 11.4625 9.59073 11.1285 9.81392C10.7945 10.0371 10.4017 10.1562 10 10.1562C9.46128 10.1562 8.94462 9.94224 8.56369 9.56131C8.18276 9.18038 7.96875 8.66372 7.96875 8.125Z" fill="black"></path></svg><svg viewBox="0 0 17 16" fill="none" id="minus"><rect x="0.75" y="0.25" width="15.5" height="15.5" rx="7.75" fill="white"></rect><rect x="0.75" y="0.25" width="15.5" height="15.5" rx="7.75" stroke="black" stroke-width="0.5"></rect><path d="M13.1663 8.66536H3.83301V7.33203H13.1663V8.66536Z" fill="black"></path></svg><svg viewBox="0 0 20 20" fill="none" id="more"><path d="M9.99967 6.66683C10.9163 6.66683 11.6663 5.91683 11.6663 5.00016C11.6663 4.0835 10.9163 3.3335 9.99967 3.3335C9.08301 3.3335 8.33301 4.0835 8.33301 5.00016C8.33301 5.91683 9.08301 6.66683 9.99967 6.66683ZM9.99967 8.3335C9.08301 8.3335 8.33301 9.0835 8.33301 10.0002C8.33301 10.9168 9.08301 11.6668 9.99967 11.6668C10.9163 11.6668 11.6663 10.9168 11.6663 10.0002C11.6663 9.0835 10.9163 8.3335 9.99967 8.3335ZM9.99967 13.3335C9.08301 13.3335 8.33301 14.0835 8.33301 15.0002C8.33301 15.9168 9.08301 16.6668 9.99967 16.6668C10.9163 16.6668 11.6663 15.9168 11.6663 15.0002C11.6663 14.0835 10.9163 13.3335 9.99967 13.3335Z" fill="black"></path></svg><svg viewBox="0 0 20 20" fill="none" id="my"><path d="M10 2C8.93913 2 7.92172 2.42143 7.17157 3.17157C6.42143 3.92172 6 4.93913 6 6C6 7.06087 6.42143 8.07828 7.17157 8.82843C7.92172 9.57857 8.93913 10 10 10C11.0609 10 12.0783 9.57857 12.8284 8.82843C13.5786 8.07828 14 7.06087 14 6C14 4.93913 13.5786 3.92172 12.8284 3.17157C12.0783 2.42143 11.0609 2 10 2ZM7 6C7 5.20435 7.31607 4.44129 7.87868 3.87868C8.44129 3.31607 9.20435 3 10 3C10.7956 3 11.5587 3.31607 12.1213 3.87868C12.6839 4.44129 13 5.20435 13 6C13 6.79565 12.6839 7.55871 12.1213 8.12132C11.5587 8.68393 10.7956 9 10 9C9.20435 9 8.44129 8.68393 7.87868 8.12132C7.31607 7.55871 7 6.79565 7 6ZM5.009 11C4.74564 10.9989 4.48466 11.0499 4.24102 11.1499C3.99739 11.2499 3.7759 11.3971 3.58926 11.5829C3.40261 11.7687 3.25448 11.9895 3.15337 12.2327C3.05225 12.4759 3.00013 12.7366 3 13C3 14.691 3.833 15.966 5.135 16.797C6.417 17.614 8.145 18 10 18C11.855 18 13.583 17.614 14.865 16.797C16.167 15.967 17 14.69 17 13C17 12.4696 16.7893 11.9609 16.4142 11.5858C16.0391 11.2107 15.5304 11 15 11H5.009ZM4 13C4 12.447 4.448 12 5.009 12H15C15.2652 12 15.5196 12.1054 15.7071 12.2929C15.8946 12.4804 16 12.7348 16 13C16 14.309 15.378 15.284 14.327 15.953C13.257 16.636 11.735 17 10 17C8.265 17 6.743 16.636 5.673 15.953C4.623 15.283 4 14.31 4 13Z" fill="black"></path></svg><svg viewBox="0 0 20 20" fill="none" id="organizer"><path fill-rule="evenodd" clip-rule="evenodd" d="M7.99345 2.66671C7.86239 2.78531 7.72466 2.89632 7.58095 2.99921C7.33262 3.16588 7.05345 3.28088 6.76012 3.33921C6.63262 3.36421 6.49928 3.37505 6.23345 3.39588C5.56595 3.44921 5.23178 3.47588 4.95345 3.57421C4.6352 3.68658 4.34614 3.86877 4.10749 4.10742C3.86884 4.34607 3.68665 4.63513 3.57428 4.95338C3.47595 5.23171 3.44928 5.56588 3.39595 6.23338C3.38686 6.40985 3.36794 6.58568 3.33928 6.76005C3.28095 7.05338 3.16595 7.33255 2.99928 7.58088C2.92678 7.68921 2.84012 7.79088 2.66678 7.99338C2.23262 8.50338 2.01512 8.75838 1.88762 9.02505C1.59345 9.64171 1.59345 10.3584 1.88762 10.975C2.01512 11.2417 2.23262 11.4967 2.66678 12.0067C2.84012 12.2092 2.92678 12.3109 2.99928 12.4192C3.16595 12.6675 3.28095 12.9467 3.33928 13.24C3.36428 13.3675 3.37512 13.5009 3.39595 13.7667C3.44928 14.4342 3.47595 14.7684 3.57428 15.0467C3.68665 15.365 3.86884 15.654 4.10749 15.8927C4.34614 16.1313 4.6352 16.3135 4.95345 16.4259C5.23178 16.5242 5.56595 16.5509 6.23345 16.6042C6.49928 16.625 6.63262 16.6359 6.76012 16.6609C7.05345 16.7192 7.33262 16.835 7.58095 17.0009C7.68928 17.0734 7.79095 17.16 7.99345 17.3334C8.50345 17.7675 8.75845 17.985 9.02512 18.1125C9.64178 18.4067 10.3585 18.4067 10.9751 18.1125C11.2418 17.985 11.4968 17.7675 12.0068 17.3334C12.2093 17.16 12.311 17.0734 12.4193 17.0009C12.6676 16.8342 12.9468 16.7192 13.2401 16.6609C13.3676 16.6359 13.501 16.625 13.7668 16.6042C14.4343 16.5509 14.7684 16.5242 15.0468 16.4259C15.365 16.3135 15.6541 16.1313 15.8927 15.8927C16.1314 15.654 16.3136 15.365 16.426 15.0467C16.5243 14.7684 16.551 14.4342 16.6043 13.7667C16.6251 13.5009 16.636 13.3675 16.661 13.24C16.7193 12.9467 16.8351 12.6675 17.0009 12.4192C17.0734 12.3109 17.1601 12.2092 17.3334 12.0067C17.7676 11.4967 17.9851 11.2417 18.1126 10.975C18.4068 10.3584 18.4068 9.64171 18.1126 9.02505C17.9851 8.75838 17.7676 8.50338 17.3334 7.99338C17.2149 7.86232 17.1038 7.7246 17.0009 7.58088C16.8344 7.33245 16.7189 7.05345 16.661 6.76005C16.6323 6.58568 16.6134 6.40985 16.6043 6.23338C16.551 5.56588 16.5243 5.23171 16.426 4.95338C16.3136 4.63513 16.1314 4.34607 15.8927 4.10742C15.6541 3.86877 15.365 3.68658 15.0468 3.57421C14.7684 3.47588 14.4343 3.44921 13.7668 3.39588C13.5903 3.38679 13.4145 3.36787 13.2401 3.33921C12.9467 3.28129 12.6677 3.16572 12.4193 2.99921C12.2757 2.8961 12.138 2.7851 12.0068 2.66671C11.4968 2.23255 11.2418 2.01505 10.9751 1.88755C10.6707 1.74203 10.3375 1.6665 10.0001 1.6665C9.66269 1.6665 9.32955 1.74203 9.02512 1.88755C8.75845 2.01505 8.50345 2.23255 7.99345 2.66671ZM13.6443 8.21921C13.7621 8.0903 13.8256 7.92094 13.8217 7.74638C13.8177 7.57181 13.7466 7.40548 13.6232 7.28201C13.4997 7.15854 13.3334 7.08744 13.1588 7.0835C12.9842 7.07957 12.8149 7.1431 12.686 7.26088L8.64428 11.3025L7.31428 9.97338C7.18537 9.8556 7.01601 9.79207 6.84144 9.79601C6.66688 9.79994 6.50055 9.87104 6.37708 9.99451C6.25361 10.118 6.18251 10.2843 6.17857 10.4589C6.17464 10.6334 6.23817 10.8028 6.35595 10.9317L8.16428 12.74C8.29146 12.867 8.46378 12.9382 8.64345 12.9382C8.82312 12.9382 8.99544 12.867 9.12262 12.74L13.6451 8.21921H13.6443Z" fill="#6391AA"></path></svg><svg viewBox="0 0 20 20" fill="none" id="pencil"><path d="M15.6817 7.17504L12.735 4.22921L13.9142 3.05088C14.4392 2.52588 15.6417 2.42171 16.2708 3.05088L16.86 3.64004C17.4892 4.26921 17.3858 5.47171 16.86 5.99754L15.6817 7.17504ZM14.5033 8.35421L6.25334 16.6042L2.42334 17.4875L3.30667 13.6575L11.5567 5.40754L14.5033 8.35421Z" fill="black"></path></svg><svg viewBox="0 0 20 20" fill="none" id="people"><path d="M2.91677 6.66661C2.91693 5.87654 3.12133 5.09992 3.51012 4.41213C3.89891 3.72434 4.45889 3.14873 5.13572 2.74116C5.81255 2.33359 6.58324 2.1079 7.37301 2.08599C8.16278 2.06408 8.9448 2.2467 9.64318 2.61612C10.3416 2.98554 10.9326 3.52923 11.3589 4.1944C11.7852 4.85958 12.0324 5.62367 12.0763 6.41252C12.1203 7.20136 11.9596 7.98818 11.6098 8.69661C11.2601 9.40505 10.7331 10.011 10.0801 10.4558C11.4864 10.9716 12.7061 11.8964 13.5823 13.1112C14.4585 14.326 14.9511 15.7753 14.9968 17.2724C14.9948 17.4339 14.9306 17.5883 14.8175 17.7035C14.7044 17.8186 14.5511 17.8856 14.3897 17.8905C14.2284 17.8953 14.0714 17.8376 13.9516 17.7294C13.8318 17.6213 13.7584 17.471 13.7468 17.3099C13.6971 15.6862 13.0172 14.1455 11.8511 13.0144C10.6849 11.8834 9.12423 11.2509 7.49969 11.2509C5.87514 11.2509 4.31443 11.8834 3.14829 13.0144C1.98215 14.1455 1.30223 15.6862 1.2526 17.3099C1.24426 17.4731 1.17233 17.6266 1.05224 17.7374C0.932137 17.8482 0.773418 17.9076 0.61008 17.9028C0.446743 17.898 0.291779 17.8294 0.178387 17.7117C0.0649947 17.5941 0.00219305 17.4367 0.00343608 17.2733C0.0488955 15.776 0.541442 14.3265 1.41767 13.1115C2.29391 11.8965 3.51372 10.9716 4.9201 10.4558C4.30246 10.0355 3.79701 9.47046 3.44783 8.81C3.09864 8.14954 2.91633 7.41369 2.91677 6.66661ZM7.5001 3.33327C6.61605 3.33327 5.7682 3.68446 5.14308 4.30958C4.51796 4.93471 4.16677 5.78255 4.16677 6.66661C4.16677 7.55066 4.51796 8.39851 5.14308 9.02363C5.7682 9.64875 6.61605 9.99994 7.5001 9.99994C8.38416 9.99994 9.232 9.64875 9.85713 9.02363C10.4822 8.39851 10.8334 7.55066 10.8334 6.66661C10.8334 5.78255 10.4822 4.93471 9.85713 4.30958C9.232 3.68446 8.38416 3.33327 7.5001 3.33327ZM14.4084 6.66661C14.2851 6.66661 14.1651 6.67494 14.0468 6.69161C13.9642 6.7064 13.8794 6.7044 13.7976 6.68573C13.7157 6.66706 13.6385 6.6321 13.5705 6.58293C13.5025 6.53376 13.445 6.4714 13.4016 6.39956C13.3582 6.32771 13.3298 6.24787 13.3179 6.16478C13.306 6.08169 13.311 5.99706 13.3326 5.91594C13.3541 5.83482 13.3918 5.75888 13.4433 5.69263C13.4948 5.62638 13.5592 5.57119 13.6325 5.53036C13.7058 5.48952 13.7866 5.46387 13.8701 5.45494C14.6989 5.33511 15.544 5.49427 16.2725 5.90738C17.0009 6.32048 17.5713 6.96408 17.8939 7.73688C18.2165 8.50968 18.273 9.36781 18.0545 10.1762C17.8359 10.9846 17.3548 11.6974 16.6868 12.2024C17.6688 12.6421 18.5025 13.3566 19.0875 14.2596C19.6725 15.1627 19.9836 16.2157 19.9834 17.2916C19.9834 17.4574 19.9176 17.6163 19.8004 17.7335C19.6832 17.8508 19.5242 17.9166 19.3584 17.9166C19.1927 17.9166 19.0337 17.8508 18.9165 17.7335C18.7993 17.6163 18.7334 17.4574 18.7334 17.2916C18.7333 16.3617 18.4337 15.4566 17.879 14.7103C17.3242 13.9641 16.5438 13.4163 15.6534 13.1483L15.2084 13.0149V11.6183L15.5501 11.4441C16.0566 11.1876 16.4618 10.7678 16.7004 10.2526C16.9389 9.73747 16.9969 9.15692 16.865 8.60474C16.733 8.05255 16.4188 7.56095 15.9731 7.20929C15.5274 6.85764 14.9762 6.66646 14.4084 6.66661Z" fill="black"></path></svg><svg viewBox="0 0 26 26" fill="none" id="plus"><g id="plus_0"><path id="plus_1" d="M20.5837 14.0812H14.0837V20.5812H11.917V14.0812H5.41699V11.9146H11.917V5.41455H14.0837V11.9146H20.5837V14.0812Z" fill="#919191"></path></g></svg><svg viewBox="0 0 18 18" fill="none" id="plusCircle"><rect width="18" height="18" rx="9" fill="#919191"></rect><path d="M14.25 9.74854H9.75V14.2485H8.25V9.74854H3.75V8.24854H8.25V3.74854H9.75V8.24854H14.25V9.74854Z" fill="#D3D3D3"></path></svg><svg viewBox="0 0 48 48" fill="none" id="postButton"><rect width="48" height="48" rx="24" fill="#79B2D1"></rect><path d="M32.1668 25.1644H25.1668V32.1644H22.8335V25.1644H15.8335V22.8311H22.8335V15.8311H25.1668V22.8311H32.1668V25.1644Z" fill="white"></path></svg><svg viewBox="0 0 48 48" fill="none" id="postButtonClicked"><rect width="48" height="48" rx="24" fill="#919191"></rect><path d="M32.1668 25.1644H25.1668V32.1644H22.8335V25.1644H15.8335V22.8311H22.8335V15.8311H25.1668V22.8311H32.1668V25.1644Z" fill="white"></path></svg><svg viewBox="0 0 30 31" fill="none" id="profile"><path d="M15 12.8682C15.5745 12.8682 16.1434 12.755 16.6742 12.5351C17.205 12.3153 17.6873 11.993 18.0936 11.5868C18.4998 11.1805 18.8221 10.6982 19.042 10.1674C19.2618 9.6366 19.375 9.0677 19.375 8.49316C19.375 7.91863 19.2618 7.34972 19.042 6.81892C18.8221 6.28812 18.4998 5.80583 18.0936 5.39957C17.6873 4.99332 17.205 4.67106 16.6742 4.45119C16.1434 4.23133 15.5745 4.11816 15 4.11816C13.8397 4.11816 12.7269 4.5791 11.9064 5.39957C11.0859 6.22004 10.625 7.33284 10.625 8.49316C10.625 9.65349 11.0859 10.7663 11.9064 11.5868C12.7269 12.4072 13.8397 12.8682 15 12.8682ZM3.75 25.8682V26.6182H26.25V25.8682C26.25 23.0682 26.25 21.6682 25.705 20.5982C25.2256 19.6574 24.4608 18.8925 23.52 18.4132C22.45 17.8682 21.05 17.8682 18.25 17.8682H11.75C8.95 17.8682 7.55 17.8682 6.48 18.4132C5.53923 18.8925 4.77436 19.6574 4.295 20.5982C3.75 21.6682 3.75 23.0682 3.75 25.8682Z" stroke="black" stroke-width="1.16667" stroke-linecap="round" stroke-linejoin="round"></path></svg><svg viewBox="0 0 20 20" fill="none" id="qna"><path d="M18.3332 9.2333V9.99997C18.3321 11.797 17.7503 13.5455 16.6743 14.9848C15.5983 16.4241 14.0859 17.477 12.3626 17.9866C10.6394 18.4961 8.79755 18.4349 7.1119 17.8121C5.42624 17.1894 3.98705 16.0384 3.00897 14.5309C2.03089 13.0233 1.56633 11.24 1.68457 9.4469C1.80281 7.65377 2.49751 5.94691 3.66507 4.58086C4.83263 3.21482 6.41049 2.26279 8.16333 1.86676C9.91617 1.47073 11.7501 1.65192 13.3915 2.3833" stroke="black" stroke-width="1.16667" stroke-linecap="round" stroke-linejoin="round"></path><path d="M18.3333 3.33325L10 11.6749L7.5 9.17492" stroke="black" stroke-width="1.16667" stroke-linecap="round" stroke-linejoin="round"></path></svg><svg viewBox="0 0 20 20" fill="currentColor" id="right"><path d="M14.1923 10.4423L7.94229 16.6923C7.88422 16.7504 7.81528 16.7964 7.73941 16.8278C7.66354 16.8593 7.58223 16.8755 7.5001 16.8755C7.41798 16.8755 7.33666 16.8593 7.26079 16.8278C7.18492 16.7964 7.11598 16.7504 7.05792 16.6923C6.99985 16.6342 6.95378 16.5653 6.92236 16.4894C6.89093 16.4135 6.87476 16.3322 6.87476 16.2501C6.87476 16.168 6.89093 16.0867 6.92236 16.0108C6.95378 15.9349 6.99985 15.866 7.05792 15.8079L12.8665 10.0001L7.05792 4.19229C6.94064 4.07502 6.87476 3.91596 6.87476 3.7501C6.87476 3.58425 6.94064 3.42519 7.05792 3.30792C7.17519 3.19064 7.33425 3.12476 7.5001 3.12476C7.66596 3.12476 7.82502 3.19064 7.94229 3.30792L14.1923 9.55792C14.2504 9.61596 14.2965 9.68489 14.328 9.76077C14.3594 9.83664 14.3756 9.91797 14.3756 10.0001C14.3756 10.0822 14.3594 10.1636 14.328 10.2394C14.2965 10.3153 14.2504 10.3842 14.1923 10.4423Z" fill="currentColor"></path></svg><svg viewBox="0 0 24 24" fill="none" id="search"><path fill-rule="evenodd" clip-rule="evenodd" d="M14.3851 15.4458C11.7349 17.5685 7.85544 17.4014 5.39866 14.9446C2.76262 12.3086 2.76262 8.0347 5.39866 5.39866C8.0347 2.76262 12.3086 2.76262 14.9446 5.39866C17.4014 7.85544 17.5685 11.7349 15.4458 14.3851L20.6014 19.5408C20.8943 19.8337 20.8943 20.3085 20.6014 20.6014C20.3085 20.8943 19.8337 20.8943 19.5408 20.6014L14.3851 15.4458ZM6.45932 13.8839C4.40907 11.8337 4.40907 8.50957 6.45932 6.45932C8.50957 4.40907 11.8337 4.40907 13.8839 6.45932C15.9327 8.50807 15.9342 11.8288 13.8885 13.8794C13.8869 13.8809 13.8854 13.8824 13.8839 13.8839C13.8824 13.8854 13.8809 13.8869 13.8794 13.8884C11.8288 15.9342 8.50807 15.9327 6.45932 13.8839Z" fill="black"></path></svg><svg viewBox="0 0 18 18" fill="none" id="send"><path d="M2.43604 1.68746C1.81697 1.39174 1.13683 1.95746 1.31361 2.62024L2.60961 7.46289C2.64209 7.58459 2.70961 7.69408 2.80379 7.77774C2.89796 7.8614 3.01464 7.91555 3.13933 7.93346L9.49333 8.84117C9.67718 8.86689 9.67718 9.13303 9.49333 9.15939L3.13997 10.0665C3.01528 10.0844 2.8986 10.1385 2.80443 10.2222C2.71025 10.3058 2.64273 10.4153 2.61025 10.537L1.31361 15.3822C1.13683 16.0444 1.81697 16.6101 2.43604 16.315L16.2562 9.72639C16.8663 9.43581 16.8663 8.56667 16.2562 8.27546L2.43604 1.68746Z" fill="#919191"></path></svg><svg viewBox="0 0 26 26" fill="none" id="setting"><path d="M17.0623 13C17.0623 14.0774 16.6343 15.1108 15.8725 15.8726C15.1106 16.6345 14.0773 17.0625 12.9998 17.0625C11.9224 17.0625 10.8891 16.6345 10.1272 15.8726C9.36535 15.1108 8.93734 14.0774 8.93734 13C8.93734 11.9226 9.36535 10.8892 10.1272 10.1274C10.8891 9.36552 11.9224 8.9375 12.9998 8.9375C14.0773 8.9375 15.1106 9.36552 15.8725 10.1274C16.6343 10.8892 17.0623 11.9226 17.0623 13ZM16.2498 13C16.2498 12.1381 15.9074 11.3114 15.2979 10.7019C14.6884 10.0924 13.8618 9.75 12.9998 9.75C12.1379 9.75 11.3112 10.0924 10.7017 10.7019C10.0923 11.3114 9.74984 12.1381 9.74984 13C9.74984 13.862 10.0923 14.6886 10.7017 15.2981C11.3112 15.9076 12.1379 16.25 12.9998 16.25C13.8618 16.25 14.6884 15.9076 15.2979 15.2981C15.9074 14.6886 16.2498 13.862 16.2498 13ZM4.79359 5.122C4.90728 5.00678 5.05401 4.92978 5.21342 4.90168C5.37284 4.87359 5.53704 4.89578 5.68328 4.96519L7.14578 5.63957C7.37649 5.74608 7.62896 5.79699 7.88292 5.78823C8.13688 5.77947 8.38524 5.71127 8.60807 5.58911C8.83089 5.46696 9.02195 5.29425 9.16592 5.08486C9.30989 4.87546 9.40274 4.63523 9.43703 4.38344L9.67834 2.61544C9.69781 2.46078 9.76317 2.31549 9.86599 2.19833C9.96882 2.08117 10.1044 1.99751 10.2552 1.95813C11.1529 1.73597 12.0743 1.6241 12.999 1.62501C13.9456 1.62501 14.8645 1.74038 15.7437 1.95813C15.8945 1.99751 16.0301 2.08117 16.1329 2.19833C16.2357 2.31549 16.3011 2.46078 16.3205 2.61544L16.5618 4.38344C16.5962 4.63512 16.689 4.87525 16.8329 5.08455C16.9769 5.29385 17.1678 5.4665 17.3905 5.58864C17.6133 5.71079 17.8615 5.77902 18.1154 5.78786C18.3692 5.7967 18.6216 5.74591 18.8523 5.63957L20.3148 4.96519C20.461 4.89578 20.6252 4.87359 20.7846 4.90168C20.9441 4.92978 21.0908 5.00678 21.2045 5.122C22.4791 6.44831 23.4131 8.06397 23.9263 9.83044C23.9692 9.98667 23.9623 10.1524 23.9067 10.3045C23.8511 10.4567 23.7495 10.5877 23.616 10.6795L22.2055 11.6708C21.9921 11.8207 21.8179 12.0198 21.6976 12.2512C21.5774 12.4826 21.5146 12.7396 21.5146 13.0004C21.5146 13.2612 21.5774 13.5182 21.6976 13.7496C21.8179 13.9811 21.9921 14.1801 22.2055 14.3301L23.616 15.3213C23.7493 15.413 23.8508 15.544 23.9064 15.6959C23.962 15.8479 23.969 16.0134 23.9263 16.1696C23.4131 17.936 22.4791 19.5517 21.2045 20.878C21.0908 20.9931 20.9443 21.0699 20.785 21.098C20.6258 21.1261 20.4617 21.104 20.3156 21.0348L18.8515 20.3604C18.6208 20.2543 18.3685 20.2036 18.1148 20.2125C17.861 20.2214 17.6129 20.2897 17.3903 20.4118C17.1677 20.534 16.9768 20.7066 16.8329 20.9158C16.689 21.125 16.5962 21.365 16.5618 21.6166L16.3205 23.3846C16.3011 23.5392 16.2357 23.6845 16.1329 23.8017C16.0301 23.9188 15.8945 24.0025 15.7437 24.0419C14.8457 24.2641 13.924 24.376 12.999 24.375C12.074 24.376 11.1523 24.2641 10.2544 24.0419C10.1036 24.0025 9.968 23.9188 9.86518 23.8017C9.76235 23.6845 9.69699 23.5392 9.67753 23.3846L9.43703 21.6166C9.40274 21.3648 9.30989 21.1245 9.16592 20.9152C9.02195 20.7058 8.83089 20.5331 8.60807 20.4109C8.38524 20.2887 8.13688 20.2205 7.88292 20.2118C7.62896 20.203 7.37649 20.2539 7.14578 20.3604L5.68328 21.0348C5.53704 21.1042 5.37284 21.1264 5.21342 21.0983C5.05401 21.0702 4.90728 20.9932 4.79359 20.878C3.51882 19.5515 2.58483 17.9355 2.07172 16.1688C2.02887 16.0125 2.03574 15.8468 2.09136 15.6947C2.14698 15.5425 2.24859 15.4115 2.38209 15.3197L3.7934 14.3284C4.00681 14.1785 4.18099 13.9794 4.30123 13.748C4.42148 13.5166 4.48425 13.2596 4.48425 12.9988C4.48425 12.738 4.42148 12.481 4.30123 12.2496C4.18099 12.0181 4.00681 11.8191 3.7934 11.6691L2.38209 10.6779C2.24859 10.5861 2.14698 10.4551 2.09136 10.3029C2.03574 10.1507 2.02887 9.98505 2.07172 9.82882C2.58531 8.06321 3.51927 6.44762 4.79359 5.122ZM2.86147 10.0238L4.25978 11.0061C5.64184 11.9771 5.64184 14.0246 4.25978 14.9955L2.86228 15.9778C3.33772 17.5943 4.19298 19.0736 5.35665 20.2922L6.80615 19.6235C7.15209 19.4641 7.53057 19.3879 7.91125 19.4012C8.29192 19.4145 8.66419 19.5167 8.9982 19.6999C9.3322 19.883 9.61864 20.1418 9.83454 20.4556C10.0504 20.7694 10.1898 21.1295 10.2414 21.5069L10.4811 23.2619C11.2871 23.4585 12.1305 23.5633 12.9998 23.5633C13.8479 23.5643 14.6931 23.463 15.517 23.2619L15.7567 21.5069C15.8083 21.1295 15.9476 20.7694 16.1635 20.4556C16.3794 20.1418 16.6659 19.883 16.9999 19.6999C17.3339 19.5167 17.7061 19.4145 18.0868 19.4012C18.4675 19.3879 18.846 19.4641 19.1919 19.6235L20.6422 20.2914C21.8059 19.0728 22.6612 17.5935 23.1366 15.977L21.7391 14.9955C21.4189 14.7706 21.1576 14.472 20.9771 14.1248C20.7967 13.7776 20.7025 13.3921 20.7025 13.0008C20.7025 12.6095 20.7967 12.224 20.9771 11.8768C21.1576 11.5297 21.4189 11.231 21.7391 11.0061L23.1366 10.0238C22.6612 8.40732 21.8059 6.92803 20.6422 5.70944L19.1919 6.37813C18.846 6.53756 18.4675 6.6137 18.0868 6.60044C17.7061 6.58718 17.3339 6.48489 16.9999 6.30177C16.6659 6.11866 16.3794 5.85981 16.1635 5.546C15.9476 5.23219 15.8083 4.87215 15.7567 4.49476L15.517 2.73976C14.6928 2.53825 13.8474 2.43677 12.999 2.43751C12.1305 2.43751 11.2871 2.54232 10.4811 2.73894L10.2414 4.49394C10.1898 4.87133 10.0504 5.23138 9.83454 5.54519C9.61864 5.859 9.3322 6.11784 8.9982 6.30096C8.66419 6.48408 8.29192 6.58637 7.91125 6.59963C7.53057 6.61289 7.15209 6.53675 6.80615 6.37732L5.35665 5.70944C4.19298 6.92803 3.3369 8.40732 2.86147 10.0238Z" fill="#777777"></path></svg><svg viewBox="0 0 20 20" fill="none" id="share"><path d="M16.4618 9.16677C16.6128 9.16678 16.7587 9.22147 16.8725 9.32074C16.9864 9.42001 17.0604 9.55714 17.0809 9.70677L17.0868 9.79177V15.6251C17.087 16.317 16.8224 16.9828 16.3473 17.4858C15.8722 17.9888 15.2226 18.2909 14.5318 18.3301L14.3784 18.3343H5.21175C4.51997 18.3343 3.85439 18.0696 3.35156 17.5945C2.84872 17.1194 2.54675 16.4699 2.50758 15.7793L2.50342 15.6259V9.79177C2.50347 9.63342 2.56362 9.48099 2.67173 9.36528C2.77984 9.24957 2.92783 9.17921 3.08582 9.16841C3.2438 9.15762 3.39999 9.2072 3.52283 9.30713C3.64567 9.40706 3.726 9.54989 3.74758 9.70677L3.75342 9.79177V15.6251C3.75322 15.9912 3.89076 16.3441 4.1387 16.6135C4.38665 16.8829 4.72686 17.0491 5.09175 17.0793L5.21175 17.0843H14.3784C14.7445 17.0842 15.0973 16.9465 15.3665 16.6984C15.6358 16.4503 15.8018 16.11 15.8318 15.7451L15.8368 15.6259V9.79177C15.8368 9.62601 15.9026 9.46704 16.0198 9.34983C16.137 9.23262 16.296 9.16677 16.4618 9.16677ZM5.18258 6.01344L9.34675 1.8501C9.45257 1.74425 9.59287 1.6799 9.74213 1.66873C9.89139 1.65757 10.0397 1.70034 10.1601 1.78927L10.2301 1.84927L14.4009 6.01344C14.513 6.12482 14.5788 6.27453 14.585 6.43245C14.5911 6.59037 14.5372 6.74475 14.4341 6.86454C14.331 6.98432 14.1864 7.0606 14.0293 7.07802C13.8723 7.09544 13.7144 7.05271 13.5876 6.95844L13.5176 6.8976L10.4151 3.80094V13.5459C10.4151 13.6968 10.3605 13.8427 10.2614 13.9565C10.1623 14.0703 10.0254 14.1444 9.87592 14.1651L9.79092 14.1709C9.63989 14.1709 9.49397 14.1162 9.38014 14.017C9.26632 13.9177 9.19229 13.7806 9.17175 13.6309L9.16592 13.5459L9.16508 3.79844L6.06675 6.8976C5.96088 7.00367 5.82042 7.06816 5.67097 7.07933C5.52153 7.0905 5.37304 7.04759 5.25258 6.95844L5.18258 6.8976C5.07664 6.79163 5.0123 6.65111 5.00129 6.50167C4.99028 6.35222 5.03332 6.2038 5.12258 6.08344L5.18258 6.01344Z" fill="black"></path></svg><svg viewBox="0 0 16 16" fill="none" id="shortcut"><path d="M14.5 1.45V14.05C14.5 14.1693 14.4526 14.2838 14.3682 14.3682C14.2838 14.4526 14.1693 14.5 14.05 14.5H1.45C1.33065 14.5 1.21619 14.4526 1.1318 14.3682C1.04741 14.2838 1 14.1693 1 14.05V1.45C1 1.33065 1.04741 1.21619 1.1318 1.1318C1.21619 1.04741 1.33065 1 1.45 1H14.05C14.1693 1 14.2838 1.04741 14.3682 1.1318C14.4526 1.21619 14.5 1.33065 14.5 1.45Z" stroke="white" stroke-width="1.125" stroke-linecap="round" stroke-linejoin="round"></path><path d="M10.0191 4.76855H6.30664M10.0191 4.76855V8.48106M10.0191 4.76855L7.36789 7.42055C5.51164 9.2768 7.36789 11.1331 7.36789 11.1331" stroke="white" stroke-width="1.125" stroke-linecap="round" stroke-linejoin="round"></path></svg><svg viewBox="0 0 20 20" fill="none" id="time"><path d="M10.0002 18.3571C14.6157 18.3571 18.3574 14.6155 18.3574 9.99996C18.3574 5.38444 14.6157 1.64282 10.0002 1.64282C5.38469 1.64282 1.64307 5.38444 1.64307 9.99996C1.64307 14.6155 5.38469 18.3571 10.0002 18.3571Z" stroke="black" stroke-width="1.42857" stroke-linecap="round" stroke-linejoin="round"></path><path d="M10 6.78564V9.99993L13.2657 13.8056" stroke="black" stroke-width="1.42857" stroke-linecap="round" stroke-linejoin="round"></path></svg><svg viewBox="0 0 16 16" fill="none" id="uncheckedBox"><rect x="0.5" y="0.5" width="15" height="15" rx="3.5" stroke="#919191"></rect></svg><svg viewBox="0 0 20 20" fill="none" id="up"><path d="M16.6923 12.9422C16.6342 13.0003 16.5653 13.0464 16.4894 13.0779C16.4136 13.1093 16.3322 13.1255 16.2501 13.1255C16.168 13.1255 16.0866 13.1093 16.0108 13.0779C15.9349 13.0464 15.866 13.0003 15.8079 12.9422L10.0001 7.1336L4.19229 12.9422C4.07502 13.0595 3.91596 13.1254 3.7501 13.1254C3.58425 13.1254 3.42519 13.0595 3.30792 12.9422C3.19064 12.8249 3.12476 12.6659 3.12476 12.5C3.12476 12.3342 3.19064 12.1751 3.30792 12.0578L9.55792 5.80782C9.61596 5.74971 9.68489 5.70361 9.76077 5.67215C9.83664 5.6407 9.91797 5.62451 10.0001 5.62451C10.0822 5.62451 10.1636 5.6407 10.2394 5.67215C10.3153 5.70361 10.3842 5.74971 10.4423 5.80782L16.6923 12.0578C16.7504 12.1159 16.7965 12.1848 16.828 12.2607C16.8594 12.3365 16.8756 12.4179 16.8756 12.5C16.8756 12.5821 16.8594 12.6635 16.828 12.7393C16.7965 12.8152 16.7504 12.8841 16.6923 12.9422Z" fill="black"></path></svg></svg>